<svg width="572" height="182" viewBox="0 0 572 182" fill="none" xmlns="http://www.w3.org/2000/svg">
<path d="M236.928 70.6508C236.928 67.9261 236.46 65.6895 235.525 63.9408C234.63 62.1921 233.37 60.8908 231.743 60.0368C230.157 59.1421 228.307 58.6948 226.192 58.6948C225.46 58.6948 224.748 58.7355 224.057 58.8168C223.406 58.8575 222.735 58.9185 222.044 58.9998V82.1188C222.654 82.2408 223.345 82.3425 224.118 82.4238C224.891 82.4645 225.623 82.4848 226.314 82.4848C229.527 82.4848 232.089 81.4885 234 79.4958C235.952 77.5031 236.928 74.5548 236.928 70.6508ZM246.505 70.4678C246.505 74.8598 245.651 78.4995 243.943 81.3868C242.276 84.2741 239.917 86.4498 236.867 87.9138C233.858 89.3371 230.32 90.0488 226.253 90.0488C224.911 90.0488 223.264 89.9471 221.312 89.7438C219.36 89.5811 217.591 89.2151 216.005 88.6458C213.89 87.8731 212.833 86.5108 212.833 84.5588V55.4008C212.833 54.5875 213.057 53.9775 213.504 53.5708C213.951 53.1235 214.541 52.7575 215.273 52.4728C216.9 51.9441 218.648 51.5985 220.519 51.4358C222.39 51.2731 224.098 51.1918 225.643 51.1918C229.832 51.1918 233.471 51.9035 236.562 53.3268C239.693 54.7095 242.133 56.8241 243.882 59.6708C245.631 62.5175 246.505 66.1165 246.505 70.4678ZM252.183 51.4358C252.183 50.0531 252.651 48.8941 253.586 47.9588C254.562 47.0235 255.782 46.5558 257.246 46.5558C258.751 46.5558 259.971 47.0235 260.906 47.9588C261.842 48.8941 262.309 50.0531 262.309 51.4358C262.309 52.7778 261.842 53.9368 260.906 54.9128C259.971 55.8888 258.751 56.3768 257.246 56.3768C255.782 56.3768 254.562 55.8888 253.586 54.9128C252.651 53.9368 252.183 52.7778 252.183 51.4358ZM252.732 73.0298H261.76V89.0728C261.394 89.1948 260.845 89.2965 260.113 89.3778C259.381 89.4998 258.588 89.5608 257.734 89.5608C255.986 89.5608 254.705 89.2558 253.891 88.6458C253.119 88.0358 252.732 86.9378 252.732 85.3518V73.0298ZM261.76 77.7268H252.732V60.2198C253.098 60.0978 253.647 59.9758 254.379 59.8538C255.152 59.7318 255.965 59.6708 256.819 59.6708C258.568 59.6708 259.829 59.9758 260.601 60.5858C261.374 61.1551 261.76 62.2735 261.76 63.9408V77.7268ZM281.125 83.3388C282.061 83.3388 282.976 83.2575 283.87 83.0948C284.806 82.8915 285.477 82.6678 285.883 82.4238V76.5678L280.759 77.0558C279.377 77.1371 278.279 77.4218 277.465 77.9098C276.652 78.3978 276.245 79.1298 276.245 80.1058C276.245 81.0818 276.632 81.8748 277.404 82.4848C278.177 83.0541 279.417 83.3388 281.125 83.3388ZM280.759 58.9388C284.989 58.9388 288.364 59.8335 290.885 61.6228C293.407 63.3715 294.667 66.0961 294.667 69.7968V83.6438C294.667 84.6605 294.403 85.4941 293.874 86.1448C293.346 86.7548 292.675 87.2835 291.861 87.7308C290.641 88.4628 289.116 89.0321 287.286 89.4388C285.497 89.8861 283.443 90.1098 281.125 90.1098C276.977 90.1098 273.663 89.2965 271.182 87.6698C268.742 86.0431 267.522 83.6235 267.522 80.4108C267.522 77.6455 268.376 75.5308 270.084 74.0668C271.792 72.5621 274.334 71.6471 277.709 71.3218L285.822 70.4678V69.7358C285.822 68.3531 285.273 67.3568 284.175 66.7468C283.118 66.1368 281.593 65.8318 279.6 65.8318C278.055 65.8318 276.53 66.0148 275.025 66.3808C273.561 66.7468 272.24 67.1738 271.06 67.6618C270.572 67.3365 270.145 66.8485 269.779 66.1978C269.454 65.5065 269.291 64.7948 269.291 64.0628C269.291 62.3548 270.227 61.1145 272.097 60.3418C273.277 59.8538 274.639 59.5081 276.184 59.3048C277.77 59.0608 279.295 58.9388 280.759 58.9388ZM301.939 73.0298L311.028 73.2128V89.0728C310.621 89.1948 310.052 89.2965 309.32 89.3778C308.588 89.4998 307.795 89.5608 306.941 89.5608C305.233 89.5608 303.972 89.2558 303.159 88.6458C302.346 88.0358 301.939 86.9378 301.939 85.3518V73.0298ZM311.028 77.9098L301.939 77.7268V49.4228C302.346 49.3008 302.915 49.1788 303.647 49.0568C304.379 48.9348 305.172 48.8738 306.026 48.8738C307.775 48.8738 309.035 49.1788 309.808 49.7888C310.621 50.3988 311.028 51.5171 311.028 53.1438V77.9098ZM331.487 77.1778H318.067C317.823 76.7711 317.599 76.2628 317.396 75.6528C317.192 75.0021 317.091 74.3108 317.091 73.5788C317.091 72.2775 317.396 71.3421 318.006 70.7728C318.616 70.1628 319.429 69.8578 320.446 69.8578H333.866C334.069 70.2238 334.272 70.7321 334.476 71.3828C334.72 72.0335 334.842 72.7045 334.842 73.3958C334.842 74.6971 334.516 75.6528 333.866 76.2628C333.256 76.8728 332.463 77.1778 331.487 77.1778ZM357.125 90.1708C353.791 90.1708 350.924 89.5811 348.524 88.4018C346.166 87.1818 344.336 85.4941 343.034 83.3388C341.774 81.1835 341.143 78.6621 341.143 75.7748V71.7488H350.476V75.5308C350.476 77.7675 351.086 79.5161 352.306 80.7768C353.567 81.9968 355.173 82.6068 357.125 82.6068C359.077 82.6068 360.663 81.9968 361.883 80.7768C363.144 79.5161 363.774 77.7675 363.774 75.5308V71.7488H373.107V75.7748C373.107 78.6621 372.477 81.1835 371.216 83.3388C369.956 85.4941 368.126 87.1818 365.726 88.4018C363.327 89.5811 360.46 90.1708 357.125 90.1708ZM350.476 73.5788H341.143V52.0458C341.591 51.9645 342.221 51.8628 343.034 51.7408C343.848 51.6188 344.661 51.5578 345.474 51.5578C347.223 51.5578 348.484 51.8628 349.256 52.4728C350.07 53.0828 350.476 54.2418 350.476 55.9498V73.5788ZM373.107 73.7008H363.774V52.0458C364.222 51.9645 364.852 51.8628 365.665 51.7408C366.519 51.6188 367.333 51.5578 368.105 51.5578C369.854 51.5578 371.115 51.8628 371.887 52.4728C372.701 53.0828 373.107 54.2418 373.107 55.9498V73.7008ZM395.261 90.0488C393.716 90.0488 392.333 89.8455 391.113 89.4388C389.893 89.0728 388.836 88.6458 387.941 88.1578V80.5328C388.633 81.1021 389.466 81.6308 390.442 82.1188C391.459 82.6068 392.598 82.8508 393.858 82.8508C396.095 82.8508 397.823 82.1391 399.043 80.7158C400.304 79.2925 400.934 77.1575 400.934 74.3108C400.934 72.3588 400.65 70.7931 400.08 69.6138C399.552 68.3938 398.779 67.4991 397.762 66.9298C396.746 66.3605 395.546 66.0758 394.163 66.0758C393.228 66.0758 392.374 66.1978 391.601 66.4418C390.869 66.6451 390.239 66.9095 389.71 67.2348V85.9008H380.743V65.9538C380.743 64.9371 380.947 64.1035 381.353 63.4528C381.76 62.7615 382.39 62.1515 383.244 61.6228C384.464 60.8501 386.01 60.2198 387.88 59.7318C389.751 59.2031 391.845 58.9388 394.163 58.9388C397.295 58.9388 400.06 59.4878 402.459 60.5858C404.899 61.6431 406.79 63.3105 408.132 65.5878C409.474 67.8245 410.145 70.7321 410.145 74.3108C410.145 77.7675 409.495 80.6548 408.193 82.9728C406.892 85.2908 405.123 87.0598 402.886 88.2798C400.65 89.4591 398.108 90.0488 395.261 90.0488ZM389.771 83.5828V99.9918C389.365 100.114 388.795 100.236 388.063 100.358C387.331 100.48 386.538 100.541 385.684 100.541C383.976 100.541 382.716 100.236 381.902 99.6258C381.13 99.0158 380.743 97.8975 380.743 96.2708V83.5828H389.771ZM452.99 70.6508C452.99 67.9261 452.522 65.6895 451.587 63.9408C450.692 62.1921 449.431 60.8908 447.805 60.0368C446.219 59.1421 444.368 58.6948 442.254 58.6948C441.522 58.6948 440.81 58.7355 440.119 58.8168C439.468 58.8575 438.797 58.9185 438.106 58.9998V82.1188C438.716 82.2408 439.407 82.3425 440.18 82.4238C440.952 82.4645 441.684 82.4848 442.376 82.4848C445.588 82.4848 448.15 81.4885 450.062 79.4958C452.014 77.5031 452.99 74.5548 452.99 70.6508ZM462.567 70.4678C462.567 74.8598 461.713 78.4995 460.005 81.3868C458.337 84.2741 455.979 86.4498 452.929 87.9138C449.919 89.3371 446.381 90.0488 442.315 90.0488C440.973 90.0488 439.326 89.9471 437.374 89.7438C435.422 89.5811 433.653 89.2151 432.067 88.6458C429.952 87.8731 428.895 86.5108 428.895 84.5588V55.4008C428.895 54.5875 429.118 53.9775 429.566 53.5708C430.013 53.1235 430.603 52.7575 431.335 52.4728C432.961 51.9441 434.71 51.5985 436.581 51.4358C438.451 51.2731 440.159 51.1918 441.705 51.1918C445.893 51.1918 449.533 51.9035 452.624 53.3268C455.755 54.7095 458.195 56.8241 459.944 59.6708C461.692 62.5175 462.567 66.1165 462.567 70.4678ZM468.245 51.4358C468.245 50.0531 468.713 48.8941 469.648 47.9588C470.624 47.0235 471.844 46.5558 473.308 46.5558C474.813 46.5558 476.033 47.0235 476.968 47.9588C477.903 48.8941 478.371 50.0531 478.371 51.4358C478.371 52.7778 477.903 53.9368 476.968 54.9128C476.033 55.8888 474.813 56.3768 473.308 56.3768C471.844 56.3768 470.624 55.8888 469.648 54.9128C468.713 53.9368 468.245 52.7778 468.245 51.4358ZM468.794 73.0298H477.822V89.0728C477.456 89.1948 476.907 89.2965 476.175 89.3778C475.443 89.4998 474.65 89.5608 473.796 89.5608C472.047 89.5608 470.766 89.2558 469.953 88.6458C469.18 88.0358 468.794 86.9378 468.794 85.3518V73.0298ZM477.822 77.7268H468.794V60.2198C469.16 60.0978 469.709 59.9758 470.441 59.8538C471.214 59.7318 472.027 59.6708 472.881 59.6708C474.63 59.6708 475.89 59.9758 476.663 60.5858C477.436 61.1551 477.822 62.2735 477.822 63.9408V77.7268ZM513.169 70.1628V75.8968H504.08V70.4678C504.08 68.9631 503.633 67.8651 502.738 67.1738C501.884 66.4418 500.745 66.0758 499.322 66.0758C498.305 66.0758 497.37 66.2181 496.516 66.5028C495.662 66.7468 494.889 67.0518 494.198 67.4178V75.8968H485.17V66.3808C485.17 65.3641 485.373 64.5305 485.78 63.8798C486.227 63.1885 486.858 62.5785 487.671 62.0498C488.972 61.1551 490.64 60.4231 492.673 59.8538C494.706 59.2438 496.943 58.9388 499.383 58.9388C503.775 58.9388 507.171 59.9148 509.57 61.8668C511.969 63.7781 513.169 66.5435 513.169 70.1628ZM485.17 73.0908H494.198V89.0728C493.791 89.1948 493.222 89.2965 492.49 89.3778C491.758 89.4998 490.965 89.5608 490.111 89.5608C488.403 89.5608 487.142 89.2558 486.329 88.6458C485.556 88.0358 485.17 86.9378 485.17 85.3518V73.0908ZM504.08 73.0908H513.169V89.0728C512.762 89.1948 512.193 89.2965 511.461 89.3778C510.729 89.4998 509.936 89.5608 509.082 89.5608C507.374 89.5608 506.113 89.2558 505.3 88.6458C504.487 88.0358 504.08 86.9378 504.08 85.3518V73.0908ZM549.842 74.4938C549.842 77.6658 549.191 80.4311 547.89 82.7898C546.629 85.1078 544.84 86.8971 542.522 88.1578C540.204 89.4185 537.479 90.0488 534.348 90.0488C531.257 90.0488 528.533 89.4388 526.174 88.2188C523.856 86.9581 522.046 85.1688 520.745 82.8508C519.484 80.4921 518.854 77.7065 518.854 74.4938C518.854 71.2811 519.505 68.5361 520.806 66.2588C522.107 63.9408 523.917 62.1515 526.235 60.8908C528.594 59.5895 531.298 58.9388 534.348 58.9388C537.439 58.9388 540.143 59.5895 542.461 60.8908C544.779 62.1515 546.589 63.9611 547.89 66.3198C549.191 68.6378 549.842 71.3625 549.842 74.4938ZM534.348 66.0758C532.437 66.0758 530.912 66.8078 529.773 68.2718C528.675 69.7358 528.126 71.8098 528.126 74.4938C528.126 77.2185 528.675 79.3128 529.773 80.7768C530.871 82.2001 532.396 82.9118 534.348 82.9118C536.3 82.9118 537.825 82.1798 538.923 80.7158C540.021 79.2518 540.57 77.1778 540.57 74.4938C540.57 71.8505 540.021 69.7968 538.923 68.3328C537.825 66.8281 536.3 66.0758 534.348 66.0758ZM329.756 131.895V144.583C329.756 145.721 329.532 146.596 329.085 147.206C328.678 147.775 327.987 148.324 327.011 148.853C325.913 149.463 324.327 149.991 322.253 150.439C320.179 150.927 318.105 151.171 316.031 151.171C312.127 151.171 308.609 150.5 305.478 149.158C302.387 147.775 299.927 145.66 298.097 142.814C296.307 139.926 295.413 136.226 295.413 131.712C295.413 127.401 296.328 123.802 298.158 120.915C299.988 117.987 302.448 115.791 305.539 114.327C308.67 112.822 312.127 112.07 315.909 112.07C318.43 112.07 320.606 112.334 322.436 112.863C324.306 113.391 325.73 114.123 326.706 115.059C327.722 115.994 328.231 117.072 328.231 118.292C328.231 119.186 327.987 120 327.499 120.732C327.051 121.423 326.502 121.952 325.852 122.318C324.835 121.667 323.554 121.057 322.009 120.488C320.463 119.918 318.654 119.634 316.58 119.634C314.343 119.634 312.33 120.122 310.541 121.098C308.792 122.033 307.43 123.416 306.454 125.246C305.478 127.035 304.99 129.17 304.99 131.651C304.99 134.335 305.457 136.571 306.393 138.361C307.369 140.15 308.69 141.492 310.358 142.387C312.066 143.241 313.997 143.668 316.153 143.668C317.169 143.668 318.084 143.566 318.898 143.363C319.752 143.159 320.402 142.956 320.85 142.753V135.616H313.713C313.469 135.209 313.245 134.701 313.042 134.091C312.838 133.44 312.737 132.749 312.737 132.017C312.737 130.756 313.021 129.841 313.591 129.272C314.201 128.662 314.994 128.357 315.97 128.357H326.218C327.316 128.357 328.17 128.662 328.78 129.272C329.43 129.882 329.756 130.756 329.756 131.895ZM349.036 144.339C349.971 144.339 350.886 144.257 351.781 144.095C352.716 143.891 353.387 143.668 353.794 143.424V137.568L348.67 138.056C347.287 138.137 346.189 138.422 345.376 138.91C344.562 139.398 344.156 140.13 344.156 141.106C344.156 142.082 344.542 142.875 345.315 143.485C346.087 144.054 347.328 144.339 349.036 144.339ZM348.67 119.939C352.899 119.939 356.274 120.833 358.796 122.623C361.317 124.371 362.578 127.096 362.578 130.797V144.644C362.578 145.66 362.313 146.494 361.785 147.145C361.256 147.755 360.585 148.283 359.772 148.731C358.552 149.463 357.027 150.032 355.197 150.439C353.407 150.886 351.354 151.11 349.036 151.11C344.888 151.11 341.573 150.296 339.093 148.67C336.653 147.043 335.433 144.623 335.433 141.411C335.433 138.645 336.287 136.531 337.995 135.067C339.703 133.562 342.244 132.647 345.62 132.322L353.733 131.468V130.736C353.733 129.353 353.184 128.357 352.086 127.747C351.028 127.137 349.503 126.832 347.511 126.832C345.965 126.832 344.44 127.015 342.936 127.381C341.472 127.747 340.15 128.174 338.971 128.662C338.483 128.336 338.056 127.848 337.69 127.198C337.364 126.506 337.202 125.795 337.202 125.063C337.202 123.355 338.137 122.114 340.008 121.342C341.187 120.854 342.549 120.508 344.095 120.305C345.681 120.061 347.206 119.939 348.67 119.939ZM396.14 129.943V136.897H387.051V131.102C387.051 129.719 386.644 128.702 385.831 128.052C385.018 127.401 384.001 127.076 382.781 127.076C381.886 127.076 381.073 127.218 380.341 127.503C379.65 127.747 379.06 128.011 378.572 128.296V136.897H369.544V127.381C369.544 126.364 369.747 125.53 370.154 124.88C370.601 124.188 371.232 123.578 372.045 123.05C373.387 122.114 375.034 121.362 376.986 120.793C378.938 120.223 380.971 119.939 383.086 119.939C385.038 119.939 386.868 120.244 388.576 120.854C390.284 121.464 391.768 122.399 393.029 123.66C393.354 123.904 393.659 124.168 393.944 124.453C394.269 124.697 394.513 124.981 394.676 125.307C395.083 125.957 395.428 126.689 395.713 127.503C395.998 128.316 396.14 129.129 396.14 129.943ZM413.647 130.858V136.897H404.619V131.102C404.619 129.719 404.233 128.702 403.46 128.052C402.687 127.401 401.671 127.076 400.41 127.076C399.475 127.076 398.58 127.279 397.726 127.686C396.913 128.052 396.201 128.499 395.591 129.028L390.833 123.782C392.175 122.724 393.7 121.83 395.408 121.098C397.116 120.325 399.21 119.939 401.691 119.939C403.806 119.939 405.778 120.305 407.608 121.037C409.438 121.769 410.902 122.928 412 124.514C413.098 126.1 413.647 128.214 413.647 130.858ZM369.544 134.091H378.572V150.073C378.165 150.195 377.596 150.296 376.864 150.378C376.132 150.5 375.339 150.561 374.485 150.561C372.777 150.561 371.516 150.256 370.703 149.646C369.93 149.036 369.544 147.938 369.544 146.352V134.091ZM387.051 134.091H396.14V150.073C395.733 150.195 395.164 150.296 394.432 150.378C393.7 150.5 392.907 150.561 392.053 150.561C390.304 150.561 389.023 150.256 388.21 149.646C387.437 149.036 387.051 147.938 387.051 146.352V134.091ZM404.619 134.091H413.647V150.073C413.281 150.195 412.732 150.296 412 150.378C411.268 150.5 410.475 150.561 409.621 150.561C407.872 150.561 406.591 150.256 405.778 149.646C405.005 149.036 404.619 147.938 404.619 146.352V134.091ZM424.983 139.764L424.617 133.664L439.745 131.285C439.664 130.146 439.176 129.089 438.281 128.113C437.387 127.137 436.065 126.649 434.316 126.649C432.486 126.649 430.961 127.279 429.741 128.54C428.521 129.76 427.871 131.508 427.789 133.786L428.094 137.995C428.46 140.231 429.416 141.838 430.961 142.814C432.507 143.749 434.337 144.217 436.451 144.217C438.159 144.217 439.766 143.973 441.27 143.485C442.775 142.997 443.995 142.488 444.93 141.96C445.54 142.326 446.028 142.834 446.394 143.485C446.801 144.135 447.004 144.827 447.004 145.559C447.004 146.779 446.516 147.795 445.54 148.609C444.605 149.422 443.283 150.032 441.575 150.439C439.908 150.845 437.997 151.049 435.841 151.049C432.71 151.049 429.884 150.459 427.362 149.28C424.882 148.1 422.93 146.331 421.506 143.973C420.083 141.614 419.371 138.666 419.371 135.128C419.371 132.525 419.778 130.268 420.591 128.357C421.445 126.445 422.564 124.88 423.946 123.66C425.37 122.399 426.956 121.464 428.704 120.854C430.494 120.244 432.344 119.939 434.255 119.939C437.061 119.939 439.501 120.508 441.575 121.647C443.69 122.745 445.337 124.249 446.516 126.161C447.696 128.072 448.285 130.288 448.285 132.81C448.285 134.07 447.94 135.026 447.248 135.677C446.557 136.327 445.601 136.734 444.381 136.897L424.983 139.764ZM477.625 141.594C477.625 144.562 476.506 146.901 474.27 148.609C472.033 150.276 468.78 151.11 464.51 151.11C461.175 151.11 458.43 150.622 456.275 149.646C454.119 148.67 453.042 147.226 453.042 145.315C453.042 144.461 453.225 143.729 453.591 143.119C453.957 142.468 454.424 141.96 454.994 141.594C456.132 142.244 457.454 142.854 458.959 143.424C460.504 143.952 462.253 144.217 464.205 144.217C467.173 144.217 468.658 143.363 468.658 141.655C468.658 140.923 468.393 140.353 467.865 139.947C467.336 139.499 466.462 139.174 465.242 138.971L462.68 138.361C459.426 137.669 456.986 136.612 455.36 135.189C453.774 133.725 452.981 131.732 452.981 129.211C452.981 126.364 454.119 124.107 456.397 122.44C458.715 120.732 461.826 119.878 465.73 119.878C467.682 119.878 469.451 120.081 471.037 120.488C472.663 120.854 473.944 121.443 474.88 122.257C475.815 123.029 476.283 124.005 476.283 125.185C476.283 125.998 476.12 126.71 475.795 127.32C475.469 127.93 475.042 128.438 474.514 128.845C474.066 128.56 473.375 128.255 472.44 127.93C471.545 127.604 470.549 127.34 469.451 127.137C468.393 126.933 467.397 126.832 466.462 126.832C464.998 126.832 463.859 127.035 463.046 127.442C462.232 127.808 461.826 128.397 461.826 129.211C461.826 129.739 462.049 130.207 462.497 130.614C462.985 130.98 463.818 131.285 464.998 131.529L467.438 132.139C471.057 132.952 473.66 134.131 475.246 135.677C476.832 137.181 477.625 139.154 477.625 141.594Z" fill="#FAF7F0"/>
<path d="M114.955 33.205C116.744 37.3359 114.186 47.5011 112.671 54.3057C105.823 54.0753 91.9344 55.9645 82.0818 61.4529C79.8552 62.6932 65.5009 56.983 71.6074 48.0282C75.8895 41.7488 80.6894 45.5488 84.8758 48.4748C82.456 46.1081 76.5458 40.8512 84.4743 34.9612C95.9002 26.4729 98.8439 47.2346 97.8833 37.5579C96.6034 24.6641 113.166 29.0739 114.955 33.205Z" fill="#FAF7F0" stroke="#FAF7F0"/>
<path d="M33.9236 73.9058C39.6982 68.1093 49.2818 69.7305 50.6822 72.5648C50.6822 72.5648 37.7715 83.0808 30.1393 90.2707C22.5793 97.3926 12.32 109.571 12.32 109.571C10.1731 106.27 8.7648 100.889 10.6245 96.8715C12.479 92.8654 16.2604 88.9275 20.9681 89.0923C25.7717 89.2606 31.2402 91.3811 30.2442 87.2748C29.4583 84.0345 29.1154 78.7323 33.9236 73.9058Z" fill="#FAF7F0" stroke="#FAF7F0"/>
<path d="M11.7773 116.907C30.1914 93.0689 72.5865 48.9164 115.624 53.1006C146.457 56.0984 152.496 73.0141 153.951 80.293C155.664 88.8588 153.566 96.9941 152.024 98.707C150.483 100.42 143.674 96.4235 140.462 94.2109C139.82 94.9248 139.007 96.6517 140.891 97.8506C142.775 99.0497 147.456 101.563 149.883 102.349C143.245 117.55 124.404 118.62 119.051 123.545C113.704 128.464 130.791 169.065 130.827 169.151C123.975 177.716 102.563 180.502 89.7158 179.002C71.3558 176.858 41.7542 161.874 30.834 149.883C17.3015 135.022 13.2048 121.261 11.7773 116.907ZM115.839 87.3604C110.754 87.3604 106.632 89.2775 106.632 91.6426C106.632 94.0075 110.754 95.9248 115.839 95.9248C120.924 95.9248 125.045 94.0075 125.046 91.6426C125.046 89.2775 120.924 87.3604 115.839 87.3604ZM129.11 65.9482C124.802 65.4517 122.69 69.5892 123.118 71.0879L125.26 71.9443C125.266 71.9468 125.273 71.948 125.279 71.9502C125.226 72.2101 125.209 72.4805 125.233 72.7549L126.174 83.2588C126.268 84.3117 126.998 85.2 128.013 85.4961C129.706 85.9899 131.382 84.6697 131.298 82.9082L130.796 72.374C130.746 71.326 130.138 70.475 129.305 70.0371C130.72 70.4336 133.309 70.7502 134.038 74.9414C134.43 77.1928 134.66 76.6544 135.751 76.6543C136.393 76.6543 134.681 66.5904 129.11 65.9482ZM128.425 69.7471C128.512 69.7376 128.594 69.7531 128.672 69.7959C128.591 69.7759 128.508 69.7597 128.425 69.7471Z" fill="#FAF7F0"/>
<path d="M169.153 91C169.153 47.8373 134.163 12.8471 91 12.8471C47.8373 12.8471 12.8471 47.8373 12.8471 91C12.8471 134.163 47.8373 169.153 91 169.153V182C40.7421 182 0 141.258 0 91C0 40.7421 40.7421 0 91 0C141.258 0 182 40.7421 182 91C182 141.258 141.258 182 91 182V169.153C134.163 169.153 169.153 134.163 169.153 91Z" fill="#FAF7F0"/>
</svg>
