<svg width="700" height="700" viewBox="0 0 700 700" fill="none" xmlns="http://www.w3.org/2000/svg">
<g clip-path="url(#clip0_2737_1794)">
<rect width="700" height="700" fill="url(#paint0_radial_2737_1794)"/>
<rect x="32.5" y="32.5" width="189" height="189" fill="white" stroke="#E430D5" stroke-width="11"/>
<path d="M157.566 60.9287C161.985 60.9287 165.566 64.5104 165.566 68.9287V92.3994C165.566 96.8175 161.985 100.399 157.566 100.399H123.452L123.181 103.301C125.309 103.096 127.898 103.011 130.844 103.011C138.574 103.011 145.758 104.763 152.271 108.346C158.864 111.972 164.095 117.241 167.948 123.985C171.92 130.936 173.749 139.145 173.749 148.338C173.749 158.211 171.747 167.007 167.438 174.456L167.439 174.457C163.121 181.965 156.61 187.563 148.238 191.305L148.229 191.31L148.219 191.313C139.922 194.987 129.813 196.67 118.152 196.67C110.792 196.67 103.967 196.091 97.7031 194.901V194.902C91.9685 193.855 86.6834 192.256 81.8877 190.064C78.9777 188.735 77.251 185.85 77.251 182.824V160.127C77.251 154.32 83.0529 150.73 88.1104 152.586L88.3506 152.679L89.6494 153.188C92.7343 154.368 96.254 155.495 100.224 156.562C105.9 158.017 110.946 158.703 115.397 158.703C118.917 158.703 121.545 158.192 123.466 157.401C125.32 156.638 126.417 155.656 127.112 154.56L127.141 154.516L127.169 154.473C127.896 153.369 128.434 151.769 128.435 149.34C128.435 146.376 127.47 144.576 125.725 143.208L125.7 143.189L125.676 143.17C123.866 141.722 120.406 140.478 114.229 140.478C111.57 140.478 108.972 140.743 106.43 141.271C103.958 141.783 101.817 142.325 99.9893 142.888C98.0659 143.48 95.9344 143.348 94.0459 142.41L83.8711 137.357C80.9653 135.915 79.2187 132.86 79.4492 129.624L83.8135 68.3604L83.8506 67.9707C84.33 63.9737 87.7265 60.9288 91.793 60.9287H157.566Z" fill="#72186B" stroke="#72186B" stroke-width="12"/>
<path d="M124.844 105.011C131.635 105.011 137.813 106.541 143.38 109.603C148.946 112.665 153.399 117.118 156.739 122.962C160.079 128.807 161.749 135.932 161.749 144.337C161.749 153.411 159.912 161.12 156.238 167.466C152.62 173.756 147.137 178.543 139.79 181.827C132.498 185.056 123.285 186.67 112.152 186.67C105.083 186.67 98.626 186.113 92.7812 185C86.9922 183.942 81.8154 182.3 77.251 180.074V153.021C81.5371 154.969 86.686 156.75 92.6978 158.365C98.7651 159.923 104.332 160.703 109.397 160.703C113.46 160.703 116.912 160.118 119.75 158.949C122.589 157.78 124.732 156.055 126.18 153.772C127.683 151.49 128.434 148.679 128.434 145.339C128.434 140.719 126.764 137.101 123.424 134.485C120.084 131.813 115.019 130.477 108.228 130.477C105.167 130.477 102.161 130.783 99.2104 131.396C96.2603 132.008 93.6719 132.676 91.4453 133.399L79.3384 127.388L83.9307 62.9287H153.566V90.3989H111.985L110.482 106.514C112.264 106.18 114.073 105.846 115.91 105.512C117.802 105.178 120.78 105.011 124.844 105.011Z" fill="#E430D5"/>
<rect x="478.5" y="32.5" width="189" height="189" fill="white" stroke="#E43F32" stroke-width="11"/>
<path d="M605.566 63.4287C610.261 63.429 614.066 67.2345 614.066 71.9287V137.239H619.009C623.703 137.239 627.509 141.045 627.509 145.739V166.371C627.509 171.065 623.703 174.871 619.009 174.871H614.066V190C614.066 194.694 610.261 198.5 605.566 198.5H577.003C572.309 198.5 568.503 194.694 568.503 190V174.871H528.324C523.63 174.871 519.824 171.065 519.824 166.371V144.775C519.824 143.063 520.342 141.39 521.309 139.977L571.129 67.1299L571.28 66.916C572.877 64.7287 575.427 63.4287 578.146 63.4287H605.566ZM567.082 137.239H568.503V135.124L567.082 137.239Z" fill="#722019" stroke="#722019" stroke-width="13"/>
<path d="M616.009 163.371H602.566V187H570.003V163.371H521.325V139.157L572.09 64.9287H602.566V138.739H616.009V163.371ZM570.003 138.739V124.545C570.003 123.265 570.031 121.65 570.086 119.702C570.142 117.754 570.198 115.806 570.253 113.857C570.365 111.854 570.448 110.184 570.504 108.848C570.615 107.456 570.699 106.705 570.754 106.593H569.836C568.778 109.098 567.804 111.186 566.914 112.855C566.023 114.47 564.854 116.39 563.407 118.617L549.88 138.739H570.003Z" fill="#E43F32"/>
<rect x="255.5" y="32.5" width="189" height="189" fill="white" stroke="#63BEE4" stroke-width="11"/>
<path d="M367.205 58.6753C369.831 58.6753 372.939 58.827 376.495 59.1138C379.243 59.3354 381.692 59.5957 383.823 59.8999C388.095 60.5095 391.072 64.1787 391.072 68.2817V89.9673C391.072 95.375 386.201 99.1893 381.169 98.396C379.67 98.1597 378.034 97.953 376.257 97.7788L376.193 97.772L376.131 97.7651C373.627 97.4706 370.419 97.3091 366.454 97.3091C358.763 97.3091 353.424 98.4956 349.929 100.325L349.903 100.338C348.49 101.07 347.266 101.913 346.208 102.867C349.832 101.632 353.839 101.091 358.104 101.091C366.195 101.091 373.536 102.869 379.853 106.714H379.852C386.174 110.506 390.929 116.023 394.146 122.983C397.369 129.955 398.838 138.122 398.838 147.252C398.838 157.208 396.923 166.14 392.8 173.796C388.743 181.379 382.863 187.255 375.278 191.309L375.261 191.319C367.73 195.313 358.982 197.17 349.254 197.17C341.977 197.17 335.098 195.996 328.679 193.581L328.659 193.573C322.184 191.112 316.504 187.343 311.671 182.317L311.642 182.286L311.612 182.255C306.776 177.093 303.12 170.73 300.535 163.343L300.524 163.312L300.515 163.282C297.951 155.715 296.747 147.047 296.747 137.4C296.747 130.076 297.27 122.805 298.317 115.591C299.395 108.115 301.346 101.033 304.191 94.3696L304.472 93.7192C307.398 87.0335 311.478 81.0958 316.686 75.9419C322.256 70.3714 329.269 66.1507 337.518 63.1567C345.944 60.0984 355.898 58.6753 367.205 58.6753ZM348.836 139.558C347.206 139.558 346.266 139.94 345.654 140.372L345.602 140.409L345.548 140.446C344.561 141.114 343.87 141.91 343.378 142.895C342.812 144.026 342.562 145.122 342.562 146.25C342.562 147.948 342.733 149.654 343.081 151.377C343.442 152.915 343.955 154.239 344.587 155.389C345.183 156.337 345.859 157.053 346.615 157.607C346.946 157.816 347.489 158.036 348.502 158.036C350.094 158.036 351.064 157.549 351.974 156.429L351.999 156.398L352.025 156.367C352.821 155.412 353.858 153.046 353.858 147.92C353.858 144.067 353.079 141.934 352.283 140.8L352.238 140.736L352.194 140.671C351.94 140.29 351.377 139.558 348.836 139.558Z" fill="#325F72" stroke="#325F72" stroke-width="13"/>
<path d="M298.247 133.399C298.247 126.386 298.748 119.428 299.75 112.525C300.752 105.567 302.561 99.0269 305.177 92.9038C307.793 86.7251 311.495 81.27 316.282 76.5386C321.069 71.7515 327.22 67.9941 334.735 65.2666C342.25 62.5391 351.406 61.1753 362.205 61.1753C364.599 61.1753 367.521 61.3145 370.972 61.5928C374.423 61.8711 377.29 62.2051 379.572 62.5947V88.395C377.29 87.9497 374.729 87.5879 371.891 87.3096C369.052 86.9756 365.573 86.8086 361.454 86.8086C353.215 86.8086 346.703 88.061 341.916 90.5659C337.184 93.0151 333.761 96.5498 331.646 101.17C329.53 105.79 328.306 111.329 327.972 117.786H328.974C330.421 115.114 332.174 112.72 334.234 110.605C336.349 108.434 338.938 106.736 341.999 105.512C345.061 104.231 348.762 103.591 353.104 103.591C360.229 103.591 366.352 105.15 371.473 108.267C376.594 111.329 380.519 115.81 383.246 121.71C385.974 127.61 387.337 134.791 387.337 143.252C387.337 152.381 385.584 160.202 382.077 166.714C378.626 173.171 373.672 178.125 367.215 181.577C360.813 184.972 353.16 186.67 344.253 186.67C337.685 186.67 331.59 185.612 325.968 183.497C320.401 181.382 315.531 178.153 311.356 173.812C307.237 169.414 304.008 163.875 301.67 157.196C299.388 150.46 298.247 142.528 298.247 133.399ZM343.502 160.536C347.009 160.536 349.848 159.2 352.019 156.528C354.245 153.856 355.358 149.653 355.358 143.92C355.358 139.3 354.44 135.682 352.603 133.065C350.822 130.394 347.899 129.058 343.836 129.058C341.108 129.058 338.798 129.726 336.906 131.062C335.013 132.342 333.566 133.984 332.564 135.988C331.562 137.992 331.061 140.079 331.061 142.25C331.061 144.421 331.284 146.592 331.729 148.763C332.23 150.934 332.981 152.91 333.983 154.691C335.041 156.417 336.349 157.836 337.908 158.949C339.466 160.007 341.331 160.536 343.502 160.536Z" fill="#63BEE4"/>
<rect x="478.5" y="255.5" width="189" height="189" fill="white" stroke="#6FC15C" stroke-width="11"/>
<mask id="path-11-outside-1_2737_1794" maskUnits="userSpaceOnUse" x="519" y="279" width="116" height="152" fill="black">
<rect fill="white" x="519" y="279" width="116" height="152"/>
<path d="M576.834 292.175C584.905 292.175 591.975 293.261 598.042 295.432C604.165 297.603 608.952 300.915 612.403 305.368C615.854 309.765 617.58 315.304 617.58 321.983C617.58 326.882 616.662 331.196 614.825 334.925C613.043 338.599 610.566 341.828 607.394 344.611C604.276 347.338 600.658 349.704 596.539 351.708C600.38 353.879 604.193 356.412 607.978 359.306C611.763 362.201 614.908 365.624 617.413 369.576C619.918 373.473 621.17 378.121 621.17 383.52C621.17 390.033 619.584 395.877 616.411 401.054C613.238 406.175 608.368 410.239 601.799 413.245C595.231 416.195 586.798 417.67 576.5 417.67C566.202 417.67 557.769 416.25 551.201 413.412C544.632 410.573 539.79 406.621 536.672 401.555C533.611 396.434 532.08 390.534 532.08 383.854C532.08 378.176 533.026 373.389 534.919 369.493C536.867 365.596 539.511 362.284 542.851 359.557C546.191 356.829 550.004 354.38 554.29 352.209C550.895 349.927 547.777 347.338 544.938 344.444C542.1 341.549 539.845 338.237 538.175 334.508C536.505 330.778 535.67 326.548 535.67 321.816C535.67 315.248 537.424 309.765 540.931 305.368C544.438 300.97 549.28 297.686 555.459 295.515C561.693 293.289 568.818 292.175 576.834 292.175ZM562.306 382.518C562.306 385.914 563.53 388.669 565.979 390.784C568.429 392.899 571.824 393.957 576.166 393.957C581.231 393.957 584.933 393.011 587.271 391.118C589.665 389.17 590.861 386.526 590.861 383.186C590.861 380.681 590.11 378.427 588.607 376.423C587.16 374.363 585.462 372.582 583.514 371.079C581.565 369.576 579.868 368.407 578.42 367.572L576.166 366.236C573.661 367.517 571.351 368.964 569.236 370.578C567.176 372.137 565.506 373.918 564.226 375.922C562.946 377.87 562.306 380.069 562.306 382.518ZM576.667 315.972C573.939 315.972 571.574 316.779 569.57 318.393C567.566 319.952 566.564 322.095 566.564 324.822C566.564 326.604 566.981 328.273 567.816 329.832C568.707 331.335 569.876 332.727 571.323 334.007C572.826 335.287 574.496 336.456 576.333 337.514C577.947 336.567 579.534 335.538 581.092 334.424C582.651 333.311 583.959 331.975 585.017 330.417C586.074 328.858 586.603 326.993 586.603 324.822C586.603 322.095 585.601 319.952 583.597 318.393C581.649 316.779 579.339 315.972 576.667 315.972Z"/>
</mask>
<path d="M576.834 292.175C584.905 292.175 591.975 293.261 598.042 295.432C604.165 297.603 608.952 300.915 612.403 305.368C615.854 309.765 617.58 315.304 617.58 321.983C617.58 326.882 616.662 331.196 614.825 334.925C613.043 338.599 610.566 341.828 607.394 344.611C604.276 347.338 600.658 349.704 596.539 351.708C600.38 353.879 604.193 356.412 607.978 359.306C611.763 362.201 614.908 365.624 617.413 369.576C619.918 373.473 621.17 378.121 621.17 383.52C621.17 390.033 619.584 395.877 616.411 401.054C613.238 406.175 608.368 410.239 601.799 413.245C595.231 416.195 586.798 417.67 576.5 417.67C566.202 417.67 557.769 416.25 551.201 413.412C544.632 410.573 539.79 406.621 536.672 401.555C533.611 396.434 532.08 390.534 532.08 383.854C532.08 378.176 533.026 373.389 534.919 369.493C536.867 365.596 539.511 362.284 542.851 359.557C546.191 356.829 550.004 354.38 554.29 352.209C550.895 349.927 547.777 347.338 544.938 344.444C542.1 341.549 539.845 338.237 538.175 334.508C536.505 330.778 535.67 326.548 535.67 321.816C535.67 315.248 537.424 309.765 540.931 305.368C544.438 300.97 549.28 297.686 555.459 295.515C561.693 293.289 568.818 292.175 576.834 292.175ZM562.306 382.518C562.306 385.914 563.53 388.669 565.979 390.784C568.429 392.899 571.824 393.957 576.166 393.957C581.231 393.957 584.933 393.011 587.271 391.118C589.665 389.17 590.861 386.526 590.861 383.186C590.861 380.681 590.11 378.427 588.607 376.423C587.16 374.363 585.462 372.582 583.514 371.079C581.565 369.576 579.868 368.407 578.42 367.572L576.166 366.236C573.661 367.517 571.351 368.964 569.236 370.578C567.176 372.137 565.506 373.918 564.226 375.922C562.946 377.87 562.306 380.069 562.306 382.518ZM576.667 315.972C573.939 315.972 571.574 316.779 569.57 318.393C567.566 319.952 566.564 322.095 566.564 324.822C566.564 326.604 566.981 328.273 567.816 329.832C568.707 331.335 569.876 332.727 571.323 334.007C572.826 335.287 574.496 336.456 576.333 337.514C577.947 336.567 579.534 335.538 581.092 334.424C582.651 333.311 583.959 331.975 585.017 330.417C586.074 328.858 586.603 326.993 586.603 324.822C586.603 322.095 585.601 319.952 583.597 318.393C581.649 316.779 579.339 315.972 576.667 315.972Z" fill="#407231"/>
<path d="M598.042 295.432L593.663 307.672L593.68 307.678L593.698 307.684L598.042 295.432ZM612.403 305.368L602.128 313.331L602.152 313.362L602.177 313.394L612.403 305.368ZM614.825 334.925L603.163 329.181L603.145 329.217L603.127 329.254L614.825 334.925ZM607.394 344.611L615.954 354.394L615.96 354.389L615.966 354.384L607.394 344.611ZM596.539 351.708L590.852 340.018L568.594 350.846L590.142 363.025L596.539 351.708ZM617.413 369.576L606.433 376.536L606.455 376.571L606.478 376.606L617.413 369.576ZM616.411 401.054L627.462 407.901L627.479 407.874L627.495 407.848L616.411 401.054ZM601.799 413.245L607.126 425.103L607.167 425.085L607.209 425.066L601.799 413.245ZM536.672 401.555L525.514 408.226L525.557 408.297L525.601 408.368L536.672 401.555ZM534.919 369.493L523.291 363.679L523.258 363.746L523.225 363.813L534.919 369.493ZM554.29 352.209L560.164 363.806L579.944 353.788L561.542 341.42L554.29 352.209ZM555.459 295.515L559.768 307.78L559.8 307.769L559.831 307.758L555.459 295.515ZM587.271 391.118L595.451 401.222L595.464 401.211L595.478 401.2L587.271 391.118ZM588.607 376.423L577.97 383.897L578.086 384.062L578.207 384.223L588.607 376.423ZM578.42 367.572L571.793 378.756L571.858 378.795L571.924 378.833L578.42 367.572ZM576.166 366.236L582.793 355.053L576.629 351.4L570.25 354.661L576.166 366.236ZM569.236 370.578L577.081 380.944L577.102 380.928L577.123 380.912L569.236 370.578ZM564.226 375.922L575.09 383.061L575.136 382.991L575.181 382.921L564.226 375.922ZM569.57 318.393L577.551 328.655L577.639 328.586L577.725 328.517L569.57 318.393ZM567.816 329.832L556.357 335.971L556.49 336.218L556.633 336.459L567.816 329.832ZM571.323 334.007L562.71 343.744L562.801 343.824L562.893 343.903L571.323 334.007ZM576.333 337.514L569.846 348.78L576.392 352.548L582.907 348.729L576.333 337.514ZM583.597 318.393L575.303 328.403L575.457 328.531L575.616 328.655L583.597 318.393ZM576.834 292.175V305.175C583.774 305.175 589.305 306.112 593.663 307.672L598.042 295.432L602.421 283.192C594.645 280.409 586.037 279.175 576.834 279.175V292.175ZM598.042 295.432L593.698 307.684C597.842 309.153 600.425 311.134 602.128 313.331L612.403 305.368L622.679 297.404C617.479 290.696 610.489 286.052 602.386 283.179L598.042 295.432ZM612.403 305.368L602.177 313.394C603.499 315.079 604.58 317.627 604.58 321.983H617.58H630.58C630.58 312.981 628.21 304.452 622.63 297.342L612.403 305.368ZM617.58 321.983H604.58C604.58 325.243 603.976 327.53 603.163 329.181L614.825 334.925L626.487 340.669C629.348 334.861 630.58 328.521 630.58 321.983H617.58ZM614.825 334.925L603.127 329.254C602.129 331.313 600.734 333.16 598.821 334.838L607.394 344.611L615.966 354.384C620.399 350.495 623.958 345.886 626.522 340.597L614.825 334.925ZM607.394 344.611L598.833 334.827C596.671 336.719 594.041 338.466 590.852 340.018L596.539 351.708L602.226 363.398C607.275 360.942 611.882 357.958 615.954 354.394L607.394 344.611ZM596.539 351.708L590.142 363.025C593.421 364.879 596.735 367.074 600.081 369.633L607.978 359.306L615.875 348.979C611.651 345.749 607.338 342.879 602.936 340.391L596.539 351.708ZM607.978 359.306L600.081 369.633C602.671 371.613 604.764 373.903 606.433 376.536L617.413 369.576L628.393 362.617C625.052 357.345 620.856 352.788 615.875 348.979L607.978 359.306ZM617.413 369.576L606.478 376.606C607.424 378.077 608.17 380.192 608.17 383.52H621.17H634.17C634.17 376.049 632.412 368.868 628.348 362.546L617.413 369.576ZM621.17 383.52H608.17C608.17 387.816 607.156 391.278 605.327 394.261L616.411 401.054L627.495 407.848C632.012 400.477 634.17 392.249 634.17 383.52H621.17ZM616.411 401.054L605.36 394.207C603.786 396.749 601.099 399.268 596.39 401.424L601.799 413.245L607.209 425.066C615.636 421.209 622.691 415.602 627.462 407.901L616.411 401.054ZM601.799 413.245L596.473 401.386C592.138 403.333 585.693 404.67 576.5 404.67V417.67V430.67C587.903 430.67 598.324 429.057 607.126 425.103L601.799 413.245ZM576.5 417.67V404.67C567.258 404.67 560.748 403.376 556.358 401.478L551.201 413.412L546.043 425.345C554.79 429.125 565.146 430.67 576.5 430.67V417.67ZM551.201 413.412L556.358 401.478C551.733 399.479 549.198 397.105 547.744 394.742L536.672 401.555L525.601 408.368C530.381 416.136 537.532 421.666 546.043 425.345L551.201 413.412ZM536.672 401.555L547.83 394.885C546.114 392.013 545.08 388.472 545.08 383.854H532.08H519.08C519.08 392.595 521.108 400.855 525.514 408.226L536.672 401.555ZM532.08 383.854H545.08C545.08 379.557 545.804 376.838 546.613 375.172L534.919 369.493L523.225 363.813C520.249 369.941 519.08 376.795 519.08 383.854H532.08ZM534.919 369.493L546.546 375.306C547.682 373.036 549.172 371.179 551.074 369.626L542.851 359.557L534.628 349.488C529.851 353.389 526.052 358.157 523.291 363.679L534.919 369.493ZM542.851 359.557L551.074 369.626C553.611 367.553 556.62 365.601 560.164 363.806L554.29 352.209L548.416 340.612C543.388 343.159 538.771 346.105 534.628 349.488L542.851 359.557ZM554.29 352.209L561.542 341.42C558.872 339.625 556.435 337.6 554.22 335.341L544.938 344.444L535.657 353.547C539.119 357.076 542.917 360.229 547.038 362.998L554.29 352.209ZM544.938 344.444L554.22 335.341C552.469 333.556 551.085 331.529 550.04 329.195L538.175 334.508L526.31 339.82C528.605 344.945 531.731 349.543 535.657 353.547L544.938 344.444ZM538.175 334.508L550.04 329.195C549.228 327.38 548.67 325.004 548.67 321.816H535.67H522.67C522.67 328.092 523.783 334.176 526.31 339.82L538.175 334.508ZM535.67 321.816H548.67C548.67 317.677 549.722 315.194 551.094 313.473L540.931 305.368L530.767 297.262C525.126 304.336 522.67 312.819 522.67 321.816H535.67ZM540.931 305.368L551.094 313.473C552.843 311.28 555.508 309.277 559.768 307.78L555.459 295.515L551.15 283.25C543.053 286.095 536.032 290.66 530.767 297.262L540.931 305.368ZM555.459 295.515L559.831 307.758C564.402 306.125 570.004 305.175 576.834 305.175V292.175V279.175C567.633 279.175 558.985 280.452 551.087 283.272L555.459 295.515ZM562.306 382.518H549.306C549.306 389.48 552.017 395.903 557.482 400.623L565.979 390.784L574.477 380.945C574.593 381.046 574.882 381.353 575.104 381.851C575.318 382.334 575.306 382.627 575.306 382.518H562.306ZM565.979 390.784L557.482 400.623C562.996 405.385 569.78 406.957 576.166 406.957V393.957V380.957C575.028 380.957 574.435 380.816 574.229 380.752C574.065 380.701 574.222 380.726 574.477 380.945L565.979 390.784ZM576.166 393.957V406.957C582.347 406.957 589.677 405.896 595.451 401.222L587.271 391.118L579.091 381.014C579.714 380.51 580.033 380.522 579.522 380.652C579 380.786 577.942 380.957 576.166 380.957V393.957ZM587.271 391.118L595.478 401.2C601.178 396.561 603.861 390.069 603.861 383.186H590.861H577.861C577.861 383.285 577.85 382.911 578.12 382.313C578.405 381.686 578.801 381.25 579.064 381.036L587.271 391.118ZM590.861 383.186H603.861C603.861 377.868 602.198 372.877 599.007 368.623L588.607 376.423L578.207 384.223C578.166 384.168 578.054 383.996 577.965 383.728C577.875 383.459 577.861 383.255 577.861 383.186H590.861ZM588.607 376.423L599.243 368.949C597.062 365.844 594.462 363.106 591.454 360.786L583.514 371.079L575.573 381.372C576.462 382.058 577.257 382.883 577.97 383.897L588.607 376.423ZM583.514 371.079L591.454 360.786C589.24 359.078 587.041 357.537 584.917 356.312L578.42 367.572L571.924 378.833C572.695 379.277 573.891 380.075 575.573 381.372L583.514 371.079ZM578.42 367.572L585.048 356.388L582.793 355.053L576.166 366.236L569.539 377.42L571.793 378.756L578.42 367.572ZM576.166 366.236L570.25 354.661C567.091 356.275 564.117 358.132 561.349 360.244L569.236 370.578L577.123 380.912C578.585 379.796 580.231 378.758 582.082 377.812L576.166 366.236ZM569.236 370.578L561.391 360.212C558.209 362.62 555.449 365.514 553.271 368.923L564.226 375.922L575.181 382.921C575.564 382.322 576.143 381.654 577.081 380.944L569.236 370.578ZM564.226 375.922L553.362 368.783C550.616 372.961 549.306 377.667 549.306 382.518H562.306H575.306C575.306 382.438 575.314 382.506 575.268 382.666C575.219 382.832 575.148 382.974 575.09 383.061L564.226 375.922ZM576.667 315.972V302.972C571.164 302.972 565.874 304.677 561.415 308.269L569.57 318.393L577.725 328.517C577.581 328.633 577.341 328.78 577.045 328.881C576.758 328.978 576.601 328.972 576.667 328.972V315.972ZM569.57 318.393L561.589 308.131C556.156 312.357 553.564 318.428 553.564 324.822H566.564H579.564C579.564 325.071 579.511 325.778 579.092 326.675C578.659 327.601 578.051 328.266 577.551 328.655L569.57 318.393ZM566.564 324.822H553.564C553.564 328.729 554.503 332.51 556.357 335.971L567.816 329.832L579.276 323.693C579.35 323.832 579.431 324.026 579.489 324.258C579.547 324.489 579.564 324.687 579.564 324.822H566.564ZM567.816 329.832L556.633 336.459C558.282 339.243 560.356 341.661 562.71 343.744L571.323 334.007L579.937 324.27C579.396 323.792 579.132 323.427 579 323.205L567.816 329.832ZM571.323 334.007L562.893 343.903C565.043 345.734 567.371 347.355 569.846 348.78L576.333 337.514L582.82 326.248C581.621 325.557 580.609 324.84 579.753 324.111L571.323 334.007ZM576.333 337.514L582.907 348.729C584.866 347.581 586.78 346.338 588.648 345.003L581.092 334.424L573.536 323.846C572.288 324.738 571.028 325.554 569.759 326.299L576.333 337.514ZM581.092 334.424L588.648 345.003C591.438 343.01 593.837 340.57 595.774 337.716L585.017 330.417L574.259 323.117C574.081 323.38 573.864 323.612 573.536 323.846L581.092 334.424ZM585.017 330.417L595.774 337.716C598.507 333.689 599.603 329.187 599.603 324.822H586.603H573.603C573.603 324.85 573.6 324.653 573.7 324.302C573.803 323.938 573.986 323.52 574.259 323.117L585.017 330.417ZM586.603 324.822H599.603C599.603 318.428 597.011 312.357 591.578 308.131L583.597 318.393L575.616 328.655C575.116 328.266 574.508 327.601 574.075 326.675C573.656 325.778 573.603 325.071 573.603 324.822H586.603ZM583.597 318.393L591.891 308.383C587.474 304.722 582.184 302.972 576.667 302.972V315.972V328.972C576.677 328.972 576.46 328.97 576.115 328.849C575.762 328.726 575.478 328.548 575.303 328.403L583.597 318.393Z" fill="#407231" mask="url(#path-11-outside-1_2737_1794)"/>
<path d="M572.834 286.175C580.905 286.175 587.975 287.261 594.042 289.432C600.165 291.603 604.952 294.915 608.403 299.368C611.854 303.765 613.58 309.304 613.58 315.983C613.58 320.882 612.662 325.196 610.825 328.925C609.043 332.599 606.566 335.828 603.394 338.611C600.276 341.338 596.658 343.704 592.539 345.708C596.38 347.879 600.193 350.412 603.978 353.306C607.763 356.201 610.908 359.624 613.413 363.576C615.918 367.473 617.17 372.121 617.17 377.52C617.17 384.033 615.584 389.877 612.411 395.054C609.238 400.175 604.368 404.239 597.799 407.245C591.231 410.195 582.798 411.67 572.5 411.67C562.202 411.67 553.769 410.25 547.201 407.412C540.632 404.573 535.79 400.621 532.672 395.555C529.611 390.434 528.08 384.534 528.08 377.854C528.08 372.176 529.026 367.389 530.919 363.493C532.867 359.596 535.511 356.284 538.851 353.557C542.191 350.829 546.004 348.38 550.29 346.209C546.895 343.927 543.777 341.338 540.938 338.444C538.1 335.549 535.845 332.237 534.175 328.508C532.505 324.778 531.67 320.548 531.67 315.816C531.67 309.248 533.424 303.765 536.931 299.368C540.438 294.97 545.28 291.686 551.459 289.515C557.693 287.289 564.818 286.175 572.834 286.175ZM558.306 376.518C558.306 379.914 559.53 382.669 561.979 384.784C564.429 386.899 567.824 387.957 572.166 387.957C577.231 387.957 580.933 387.011 583.271 385.118C585.665 383.17 586.861 380.526 586.861 377.186C586.861 374.681 586.11 372.427 584.607 370.423C583.16 368.363 581.462 366.582 579.514 365.079C577.565 363.576 575.868 362.407 574.42 361.572L572.166 360.236C569.661 361.517 567.351 362.964 565.236 364.578C563.176 366.137 561.506 367.918 560.226 369.922C558.946 371.87 558.306 374.069 558.306 376.518ZM572.667 309.972C569.939 309.972 567.574 310.779 565.57 312.393C563.566 313.952 562.564 316.095 562.564 318.822C562.564 320.604 562.981 322.273 563.816 323.832C564.707 325.335 565.876 326.727 567.323 328.007C568.826 329.287 570.496 330.456 572.333 331.514C573.947 330.567 575.534 329.538 577.092 328.424C578.651 327.311 579.959 325.975 581.017 324.417C582.074 322.858 582.603 320.993 582.603 318.822C582.603 316.095 581.601 313.952 579.597 312.393C577.649 310.779 575.339 309.972 572.667 309.972Z" fill="#80E462"/>
<rect x="32.5" y="478.5" width="189" height="189" fill="white" stroke="#C9822E" stroke-width="11"/>
<path d="M174.004 510.929C178.422 510.929 182.004 514.511 182.004 518.929V535.981C182.004 537.043 181.792 538.094 181.382 539.073L139.051 640.092C137.805 643.065 134.896 645 131.673 645H101.925C96.1418 645 92.2692 639.053 94.6084 633.764L131.554 550.232H89.915C85.4969 550.232 81.9153 546.65 81.915 542.232V518.929C81.915 514.51 85.4968 510.929 89.915 510.929H174.004Z" fill="#72450E" stroke="#72450F" stroke-width="12"/>
<path d="M93.853 633L135.768 538.232H82.915V510.929H171.003V530.383L128.003 633H93.853Z" fill="#E4891E"/>
<rect x="13" y="238" width="453" height="225" rx="15" fill="#FFCC00" fill-opacity="0.7" stroke="#FFCC00" stroke-width="11"/>
<rect x="255.5" y="478.5" width="189" height="189" fill="white" stroke="#C8AB05" stroke-width="11"/>
<path d="M354.498 507.675C367.841 507.675 379.187 510.318 387.838 516.345H387.839C396.827 522.568 401.494 531.467 401.494 542.397C401.494 549.133 400.029 555.321 396.842 560.714L396.843 560.715C394.086 565.415 390.44 569.337 385.965 572.447C389.262 574.003 392.238 575.926 394.848 578.251H394.849C394.855 578.257 394.862 578.263 394.868 578.269C394.88 578.279 394.891 578.289 394.902 578.299H394.901C401.918 584.469 405.084 593.062 405.084 603.099C405.084 611.006 402.954 618.347 398.715 624.971L398.699 624.997C394.296 631.807 387.641 636.96 379.265 640.683L379.246 640.692L379.228 640.7C370.614 644.464 359.985 646.17 347.651 646.17C339.458 646.17 332.248 645.567 326.109 644.278C320.669 643.135 315.371 641.591 310.22 639.644C306.874 638.38 304.747 635.185 304.747 631.711V608.969C304.747 602.603 311.254 598.822 316.667 601.116L316.924 601.23L317.67 601.569C321.401 603.241 325.189 604.535 329.038 605.459C334.271 606.647 338.877 607.203 342.893 607.203C346.629 607.203 349.519 606.934 351.664 606.485C353.867 606.024 354.874 605.458 355.232 605.175L355.257 605.157L355.28 605.138C356.585 604.129 357.183 602.994 357.183 601.095C357.183 599.44 356.787 598.45 356.306 597.776C356.177 597.596 355.284 596.644 352.081 595.749L352.068 595.746L352.057 595.742C349.193 594.93 344.53 594.403 337.716 594.403H332.201C327.507 594.403 323.701 590.597 323.701 585.903V565.104C323.701 560.41 327.507 556.604 332.201 556.604H337.883C343.83 556.604 348.021 556.061 350.75 555.221L350.763 555.217L350.776 555.213C353.783 554.302 355.103 553.317 355.61 552.748C356.252 551.963 356.515 551.208 356.515 550.246C356.515 549.477 356.37 549.144 356.316 549.042C356.277 548.967 356.184 548.808 355.823 548.583C354.68 547.872 352.687 547.227 349.321 547.227C346.244 547.227 343.447 547.646 340.895 548.438C337.936 549.356 335.485 550.338 333.495 551.356C332.106 552.067 330.961 552.68 330.046 553.198C326.202 555.374 321.042 554.348 318.52 550.289L306.904 531.591C304.527 527.764 305.511 522.562 309.507 520.002L310.473 519.394C315.336 516.38 320.7 513.81 326.539 511.665L326.548 511.662L326.556 511.659C334.105 508.908 343.512 507.675 354.498 507.675Z" fill="#726100" stroke="#726100" stroke-width="13"/>
<path d="M388.994 537.397C388.994 543.186 387.741 548.196 385.236 552.426C382.787 556.601 379.503 560.024 375.384 562.696C371.32 565.368 366.867 567.372 362.024 568.708V569.209C371.766 570.434 379.28 573.412 384.568 578.143C389.912 582.819 392.584 589.471 392.584 598.099C392.584 604.778 390.803 610.901 387.24 616.468C383.678 621.979 378.139 626.404 370.625 629.744C363.11 633.028 353.452 634.67 341.651 634.67C333.747 634.67 327.012 634.085 321.445 632.917C315.879 631.748 310.479 630.133 305.247 628.074V600.687C310.535 603.415 315.962 605.446 321.529 606.782C327.151 608.062 332.272 608.703 336.892 608.703C344.908 608.703 350.363 607.562 353.257 605.279C356.208 602.997 357.683 599.936 357.683 596.095C357.683 593.312 356.987 590.946 355.595 588.998C354.204 587.049 351.615 585.546 347.83 584.489C344.101 583.431 338.729 582.902 331.715 582.902H324.201V558.104H331.882C338.117 558.104 343.043 557.547 346.661 556.434C350.335 555.321 352.979 553.818 354.593 551.925C356.208 549.977 357.015 547.75 357.015 545.246C357.015 542.017 355.762 539.624 353.257 538.065C350.752 536.506 347.44 535.727 343.321 535.727C339.647 535.727 336.196 536.228 332.968 537.23C329.739 538.232 326.928 539.345 324.535 540.57C322.141 541.794 320.332 542.796 319.107 543.576L305.414 521.533C310.479 518.082 316.269 515.159 322.781 512.766C329.35 510.372 337.922 509.175 348.498 509.175C361.078 509.175 370.958 511.68 378.139 516.69C385.375 521.7 388.994 528.602 388.994 537.397Z" fill="#E4C200"/>
<rect x="255.501" y="255.5" width="189" height="189" fill="white" stroke="#E430D5" stroke-width="11"/>
<path d="M380.567 283.928C384.986 283.928 388.567 287.51 388.567 291.928V315.399C388.567 319.817 384.985 323.399 380.567 323.399H346.453L346.182 326.3C348.31 326.095 350.899 326.01 353.845 326.01C361.575 326.01 368.759 327.763 375.272 331.345C381.865 334.971 387.095 340.241 390.949 346.985C394.921 353.935 396.75 362.144 396.75 371.337C396.75 381.211 394.748 390.006 390.439 397.456L390.44 397.457C386.122 404.964 379.611 410.562 371.239 414.304L371.229 414.309L371.22 414.313C362.923 417.986 352.814 419.669 341.153 419.669C333.793 419.669 326.968 419.091 320.704 417.901V417.902C314.97 416.854 309.684 415.255 304.889 413.064C301.979 411.734 300.252 408.849 300.252 405.824V383.126C300.252 377.319 306.054 373.729 311.111 375.585L311.352 375.678L312.65 376.188C315.735 377.367 319.255 378.494 323.225 379.561C328.901 381.017 333.947 381.703 338.398 381.703C341.918 381.703 344.546 381.192 346.467 380.401C348.321 379.637 349.418 378.655 350.113 377.559L350.142 377.515L350.17 377.472C350.897 376.368 351.435 374.769 351.436 372.339C351.436 369.375 350.471 367.575 348.726 366.208L348.701 366.189L348.677 366.169C346.867 364.722 343.407 363.477 337.229 363.477C334.571 363.477 331.973 363.742 329.431 364.27C326.959 364.783 324.818 365.325 322.99 365.887C321.067 366.479 318.935 366.347 317.047 365.41L306.872 360.357C303.966 358.914 302.22 355.86 302.45 352.624L306.814 291.36L306.852 290.97C307.331 286.973 310.728 283.928 314.794 283.928H380.567Z" fill="#72186B" stroke="#72186B" stroke-width="12"/>
<path d="M347.845 328.01C354.636 328.01 360.814 329.541 366.381 332.602C371.947 335.664 376.4 340.117 379.74 345.961C383.08 351.806 384.75 358.931 384.75 367.336C384.75 376.41 382.913 384.119 379.239 390.465C375.621 396.755 370.138 401.542 362.791 404.826C355.499 408.055 346.286 409.669 335.153 409.669C328.084 409.669 321.627 409.112 315.782 407.999C309.993 406.941 304.816 405.299 300.252 403.073V376.02C304.538 377.968 309.687 379.75 315.699 381.364C321.766 382.922 327.333 383.702 332.398 383.702C336.461 383.702 339.913 383.117 342.751 381.948C345.59 380.779 347.733 379.054 349.181 376.771C350.684 374.489 351.435 371.678 351.435 368.338C351.435 363.718 349.765 360.1 346.425 357.484C343.085 354.812 338.02 353.476 331.229 353.476C328.167 353.476 325.162 353.782 322.211 354.395C319.261 355.007 316.673 355.675 314.446 356.398L302.339 350.387L306.932 285.928H376.567V313.398H334.986L333.483 329.513C335.265 329.179 337.074 328.845 338.911 328.511C340.803 328.177 343.781 328.01 347.845 328.01Z" fill="#E430D5"/>
<rect x="32.5" y="255.5" width="189" height="189" fill="white" stroke="#E430D5" stroke-width="11"/>
<path d="M157.566 283.929C161.985 283.929 165.566 287.51 165.566 291.929V315.399C165.566 319.817 161.985 323.399 157.566 323.399H123.452L123.181 326.301C125.309 326.096 127.898 326.011 130.844 326.011C138.574 326.011 145.758 327.763 152.271 331.346C158.864 334.972 164.095 340.241 167.948 346.985C171.92 353.936 173.749 362.145 173.749 371.338C173.749 381.211 171.747 390.007 167.438 397.456L167.439 397.457C163.121 404.965 156.61 410.563 148.238 414.305L148.229 414.31L148.219 414.313C139.922 417.987 129.813 419.67 118.152 419.67C110.792 419.67 103.967 419.091 97.7031 417.901V417.902C91.9685 416.855 86.6834 415.256 81.8877 413.064C78.9777 411.735 77.251 408.85 77.251 405.824V383.127C77.251 377.32 83.0529 373.73 88.1104 375.586L88.3506 375.679L89.6494 376.188C92.7343 377.368 96.254 378.495 100.224 379.562C105.9 381.017 110.946 381.703 115.397 381.703C118.917 381.703 121.545 381.192 123.466 380.401C125.32 379.638 126.417 378.656 127.112 377.56L127.141 377.516L127.169 377.473C127.896 376.369 128.434 374.769 128.435 372.34C128.435 369.376 127.47 367.576 125.725 366.208L125.7 366.189L125.676 366.17C123.866 364.722 120.406 363.478 114.229 363.478C111.57 363.478 108.972 363.743 106.43 364.271C103.958 364.783 101.817 365.325 99.9893 365.888C98.0659 366.48 95.9344 366.348 94.0459 365.41L83.8711 360.357C80.9653 358.915 79.2187 355.86 79.4492 352.624L83.8135 291.36L83.8506 290.971C84.33 286.974 87.7265 283.929 91.793 283.929H157.566Z" fill="#72186B" stroke="#72186B" stroke-width="12"/>
<path d="M124.844 328.01C131.635 328.01 137.813 329.541 143.38 332.603C148.946 335.664 153.399 340.117 156.739 345.962C160.079 351.807 161.749 358.932 161.749 367.337C161.749 376.41 159.912 384.12 156.238 390.465C152.62 396.755 147.137 401.542 139.79 404.827C132.498 408.055 123.285 409.669 112.152 409.669C105.083 409.669 98.626 409.113 92.7812 408C86.9922 406.942 81.8154 405.3 77.251 403.073V376.021C81.5371 377.969 86.686 379.75 92.6978 381.364C98.7651 382.923 104.332 383.702 109.397 383.702C113.46 383.702 116.912 383.118 119.75 381.949C122.589 380.78 124.732 379.054 126.18 376.772C127.683 374.49 128.434 371.679 128.434 368.339C128.434 363.719 126.764 360.101 123.424 357.484C120.084 354.812 115.019 353.477 108.228 353.477C105.167 353.477 102.161 353.783 99.2104 354.395C96.2603 355.007 93.6719 355.675 91.4453 356.399L79.3384 350.387L83.9307 285.928H153.566V313.398H111.985L110.482 329.513C112.264 329.179 114.073 328.845 115.91 328.511C117.802 328.177 120.78 328.01 124.844 328.01Z" fill="#E430D5"/>
<path d="M700 700H0V0H700V700ZM30 232C16.7452 232 6 242.745 6 256V445C6 458.255 16.7452 469 30 469H449C462.255 469 473 458.255 473 445V256C473 242.745 462.255 232 449 232H30Z" fill="#05008D" fill-opacity="0.2"/>
<path d="M722.445 711.185C691.824 747.084 678.968 741.848 632.878 750.781C586.787 759.715 384.182 673.552 405.764 645.49C417.472 611.224 445.759 628.023 497.065 638.244L405.991 447.416C390.52 420.45 409.402 374.093 450.876 428.454C478.057 464.081 488.1 476.542 504.891 499.957C504.891 499.957 510.62 486.748 526.988 480.344C552.013 470.552 584.309 502.199 577.615 494.604C574.913 491.537 557.561 483.164 570.44 478.51C587.349 472.399 602.265 474.372 613.194 478.067C610.407 474.862 611.358 471.49 621.696 468.955C648.845 462.299 676.609 480.216 683.86 492.001C720.772 551.996 753.064 675.285 722.445 711.185Z" fill="#F7F7F7" stroke="black" stroke-width="11"/>
<line x1="391.811" y1="460.344" x2="350.344" y2="471.413" stroke="black" stroke-width="12" stroke-linecap="round"/>
<line x1="403.046" y1="474.551" x2="371.739" y2="487.194" stroke="black" stroke-width="11" stroke-linecap="round"/>
</g>
<defs>
<radialGradient id="paint0_radial_2737_1794" cx="0" cy="0" r="1" gradientUnits="userSpaceOnUse" gradientTransform="translate(308 350) scale(304.5 247.096)">
<stop offset="0.302885" stop-color="#28C0F4"/>
<stop offset="1" stop-color="#2C00A3"/>
</radialGradient>
<clipPath id="clip0_2737_1794">
<rect width="700" height="700" fill="white"/>
</clipPath>
</defs>
</svg>
