<svg width="649" height="182" viewBox="0 0 649 182" fill="none" xmlns="http://www.w3.org/2000/svg">
<path d="M233.579 70.6508C233.579 67.9261 233.111 65.6895 232.176 63.9408C231.281 62.1921 230.021 60.8908 228.394 60.0368C226.808 59.1421 224.957 58.6948 222.843 58.6948C222.111 58.6948 221.399 58.7355 220.708 58.8168C220.057 58.8575 219.386 58.9185 218.695 58.9998V82.1188C219.305 82.2408 219.996 82.3425 220.769 82.4238C221.541 82.4645 222.273 82.4848 222.965 82.4848C226.178 82.4848 228.739 81.4885 230.651 79.4958C232.603 77.5031 233.579 74.5548 233.579 70.6508ZM243.156 70.4678C243.156 74.8598 242.302 78.4995 240.594 81.3868C238.927 84.2741 236.568 86.4498 233.518 87.9138C230.509 89.3371 226.971 90.0488 222.904 90.0488C221.562 90.0488 219.915 89.9471 217.963 89.7438C216.011 89.5811 214.242 89.2151 212.656 88.6458C210.541 87.8731 209.484 86.5108 209.484 84.5588V55.4008C209.484 54.5875 209.707 53.9775 210.155 53.5708C210.602 53.1235 211.192 52.7575 211.924 52.4728C213.55 51.9441 215.299 51.5985 217.17 51.4358C219.04 51.2731 220.748 51.1918 222.294 51.1918C226.482 51.1918 230.122 51.9035 233.213 53.3268C236.344 54.7095 238.784 56.8241 240.533 59.6708C242.282 62.5175 243.156 66.1165 243.156 70.4678ZM248.834 51.4358C248.834 50.0531 249.302 48.8941 250.237 47.9588C251.213 47.0235 252.433 46.5558 253.897 46.5558C255.402 46.5558 256.622 47.0235 257.557 47.9588C258.492 48.8941 258.96 50.0531 258.96 51.4358C258.96 52.7778 258.492 53.9368 257.557 54.9128C256.622 55.8888 255.402 56.3768 253.897 56.3768C252.433 56.3768 251.213 55.8888 250.237 54.9128C249.302 53.9368 248.834 52.7778 248.834 51.4358ZM249.383 73.0298H258.411V89.0728C258.045 89.1948 257.496 89.2965 256.764 89.3778C256.032 89.4998 255.239 89.5608 254.385 89.5608C252.636 89.5608 251.355 89.2558 250.542 88.6458C249.769 88.0358 249.383 86.9378 249.383 85.3518V73.0298ZM258.411 77.7268H249.383V60.2198C249.749 60.0978 250.298 59.9758 251.03 59.8538C251.803 59.7318 252.616 59.6708 253.47 59.6708C255.219 59.6708 256.479 59.9758 257.252 60.5858C258.025 61.1551 258.411 62.2735 258.411 63.9408V77.7268ZM277.776 83.3388C278.712 83.3388 279.627 83.2575 280.521 83.0948C281.457 82.8915 282.128 82.6678 282.534 82.4238V76.5678L277.41 77.0558C276.028 77.1371 274.93 77.4218 274.116 77.9098C273.303 78.3978 272.896 79.1298 272.896 80.1058C272.896 81.0818 273.283 81.8748 274.055 82.4848C274.828 83.0541 276.068 83.3388 277.776 83.3388ZM277.41 58.9388C281.64 58.9388 285.015 59.8335 287.536 61.6228C290.058 63.3715 291.318 66.0961 291.318 69.7968V83.6438C291.318 84.6605 291.054 85.4941 290.525 86.1448C289.997 86.7548 289.326 87.2835 288.512 87.7308C287.292 88.4628 285.767 89.0321 283.937 89.4388C282.148 89.8861 280.094 90.1098 277.776 90.1098C273.628 90.1098 270.314 89.2965 267.833 87.6698C265.393 86.0431 264.173 83.6235 264.173 80.4108C264.173 77.6455 265.027 75.5308 266.735 74.0668C268.443 72.5621 270.985 71.6471 274.36 71.3218L282.473 70.4678V69.7358C282.473 68.3531 281.924 67.3568 280.826 66.7468C279.769 66.1368 278.244 65.8318 276.251 65.8318C274.706 65.8318 273.181 66.0148 271.676 66.3808C270.212 66.7468 268.891 67.1738 267.711 67.6618C267.223 67.3365 266.796 66.8485 266.43 66.1978C266.105 65.5065 265.942 64.7948 265.942 64.0628C265.942 62.3548 266.878 61.1145 268.748 60.3418C269.928 59.8538 271.29 59.5081 272.835 59.3048C274.421 59.0608 275.946 58.9388 277.41 58.9388ZM298.59 73.0298L307.679 73.2128V89.0728C307.272 89.1948 306.703 89.2965 305.971 89.3778C305.239 89.4998 304.446 89.5608 303.592 89.5608C301.884 89.5608 300.623 89.2558 299.81 88.6458C298.996 88.0358 298.59 86.9378 298.59 85.3518V73.0298ZM307.679 77.9098L298.59 77.7268V49.4228C298.996 49.3008 299.566 49.1788 300.298 49.0568C301.03 48.9348 301.823 48.8738 302.677 48.8738C304.425 48.8738 305.686 49.1788 306.459 49.7888C307.272 50.3988 307.679 51.5171 307.679 53.1438V77.9098ZM328.137 77.1778H314.717C314.473 76.7711 314.25 76.2628 314.046 75.6528C313.843 75.0021 313.741 74.3108 313.741 73.5788C313.741 72.2775 314.046 71.3421 314.656 70.7728C315.266 70.1628 316.08 69.8578 317.096 69.8578H330.516C330.72 70.2238 330.923 70.7321 331.126 71.3828C331.37 72.0335 331.492 72.7045 331.492 73.3958C331.492 74.6971 331.167 75.6528 330.516 76.2628C329.906 76.8728 329.113 77.1778 328.137 77.1778ZM353.776 90.1708C350.441 90.1708 347.574 89.5811 345.175 88.4018C342.816 87.1818 340.986 85.4941 339.685 83.3388C338.424 81.1835 337.794 78.6621 337.794 75.7748V71.7488H347.127V75.5308C347.127 77.7675 347.737 79.5161 348.957 80.7768C350.218 81.9968 351.824 82.6068 353.776 82.6068C355.728 82.6068 357.314 81.9968 358.534 80.7768C359.795 79.5161 360.425 77.7675 360.425 75.5308V71.7488H369.758V75.7748C369.758 78.6621 369.128 81.1835 367.867 83.3388C366.606 85.4941 364.776 87.1818 362.377 88.4018C359.978 89.5811 357.111 90.1708 353.776 90.1708ZM347.127 73.5788H337.794V52.0458C338.241 51.9645 338.872 51.8628 339.685 51.7408C340.498 51.6188 341.312 51.5578 342.125 51.5578C343.874 51.5578 345.134 51.8628 345.907 52.4728C346.72 53.0828 347.127 54.2418 347.127 55.9498V73.5788ZM369.758 73.7008H360.425V52.0458C360.872 51.9645 361.503 51.8628 362.316 51.7408C363.17 51.6188 363.983 51.5578 364.756 51.5578C366.505 51.5578 367.765 51.8628 368.538 52.4728C369.351 53.0828 369.758 54.2418 369.758 55.9498V73.7008ZM391.912 90.0488C390.367 90.0488 388.984 89.8455 387.764 89.4388C386.544 89.0728 385.487 88.6458 384.592 88.1578V80.5328C385.283 81.1021 386.117 81.6308 387.093 82.1188C388.11 82.6068 389.248 82.8508 390.509 82.8508C392.746 82.8508 394.474 82.1391 395.694 80.7158C396.955 79.2925 397.585 77.1575 397.585 74.3108C397.585 72.3588 397.3 70.7931 396.731 69.6138C396.202 68.3938 395.43 67.4991 394.413 66.9298C393.396 66.3605 392.197 66.0758 390.814 66.0758C389.879 66.0758 389.025 66.1978 388.252 66.4418C387.52 66.6451 386.89 66.9095 386.361 67.2348V85.9008H377.394V65.9538C377.394 64.9371 377.597 64.1035 378.004 63.4528C378.411 62.7615 379.041 62.1515 379.895 61.6228C381.115 60.8501 382.66 60.2198 384.531 59.7318C386.402 59.2031 388.496 58.9388 390.814 58.9388C393.945 58.9388 396.711 59.4878 399.11 60.5858C401.55 61.6431 403.441 63.3105 404.783 65.5878C406.125 67.8245 406.796 70.7321 406.796 74.3108C406.796 77.7675 406.145 80.6548 404.844 82.9728C403.543 85.2908 401.774 87.0598 399.537 88.2798C397.3 89.4591 394.759 90.0488 391.912 90.0488ZM386.422 83.5828V99.9918C386.015 100.114 385.446 100.236 384.714 100.358C383.982 100.48 383.189 100.541 382.335 100.541C380.627 100.541 379.366 100.236 378.553 99.6258C377.78 99.0158 377.394 97.8975 377.394 96.2708V83.5828H386.422ZM449.64 70.6508C449.64 67.9261 449.173 65.6895 448.237 63.9408C447.343 62.1921 446.082 60.8908 444.455 60.0368C442.869 59.1421 441.019 58.6948 438.904 58.6948C438.172 58.6948 437.461 58.7355 436.769 58.8168C436.119 58.8575 435.448 58.9185 434.756 58.9998V82.1188C435.366 82.2408 436.058 82.3425 436.83 82.4238C437.603 82.4645 438.335 82.4848 439.026 82.4848C442.239 82.4848 444.801 81.4885 446.712 79.4958C448.664 77.5031 449.64 74.5548 449.64 70.6508ZM459.217 70.4678C459.217 74.8598 458.363 78.4995 456.655 81.3868C454.988 84.2741 452.629 86.4498 449.579 87.9138C446.57 89.3371 443.032 90.0488 438.965 90.0488C437.623 90.0488 435.976 89.9471 434.024 89.7438C432.072 89.5811 430.303 89.2151 428.717 88.6458C426.603 87.8731 425.545 86.5108 425.545 84.5588V55.4008C425.545 54.5875 425.769 53.9775 426.216 53.5708C426.664 53.1235 427.253 52.7575 427.985 52.4728C429.612 51.9441 431.361 51.5985 433.231 51.4358C435.102 51.2731 436.81 51.1918 438.355 51.1918C442.544 51.1918 446.184 51.9035 449.274 53.3268C452.406 54.7095 454.846 56.8241 456.594 59.6708C458.343 62.5175 459.217 66.1165 459.217 70.4678ZM464.896 51.4358C464.896 50.0531 465.363 48.8941 466.299 47.9588C467.275 47.0235 468.495 46.5558 469.959 46.5558C471.463 46.5558 472.683 47.0235 473.619 47.9588C474.554 48.8941 475.022 50.0531 475.022 51.4358C475.022 52.7778 474.554 53.9368 473.619 54.9128C472.683 55.8888 471.463 56.3768 469.959 56.3768C468.495 56.3768 467.275 55.8888 466.299 54.9128C465.363 53.9368 464.896 52.7778 464.896 51.4358ZM465.445 73.0298H474.473V89.0728C474.107 89.1948 473.558 89.2965 472.826 89.3778C472.094 89.4998 471.301 89.5608 470.447 89.5608C468.698 89.5608 467.417 89.2558 466.604 88.6458C465.831 88.0358 465.445 86.9378 465.445 85.3518V73.0298ZM474.473 77.7268H465.445V60.2198C465.811 60.0978 466.36 59.9758 467.092 59.8538C467.864 59.7318 468.678 59.6708 469.532 59.6708C471.28 59.6708 472.541 59.9758 473.314 60.5858C474.086 61.1551 474.473 62.2735 474.473 63.9408V77.7268ZM509.82 70.1628V75.8968H500.731V70.4678C500.731 68.9631 500.283 67.8651 499.389 67.1738C498.535 66.4418 497.396 66.0758 495.973 66.0758C494.956 66.0758 494.021 66.2181 493.167 66.5028C492.313 66.7468 491.54 67.0518 490.849 67.4178V75.8968H481.821V66.3808C481.821 65.3641 482.024 64.5305 482.431 63.8798C482.878 63.1885 483.508 62.5785 484.322 62.0498C485.623 61.1551 487.29 60.4231 489.324 59.8538C491.357 59.2438 493.594 58.9388 496.034 58.9388C500.426 58.9388 503.821 59.9148 506.221 61.8668C508.62 63.7781 509.82 66.5435 509.82 70.1628ZM481.821 73.0908H490.849V89.0728C490.442 89.1948 489.873 89.2965 489.141 89.3778C488.409 89.4998 487.616 89.5608 486.762 89.5608C485.054 89.5608 483.793 89.2558 482.98 88.6458C482.207 88.0358 481.821 86.9378 481.821 85.3518V73.0908ZM500.731 73.0908H509.82V89.0728C509.413 89.1948 508.844 89.2965 508.112 89.3778C507.38 89.4998 506.587 89.5608 505.733 89.5608C504.025 89.5608 502.764 89.2558 501.951 88.6458C501.137 88.0358 500.731 86.9378 500.731 85.3518V73.0908ZM546.493 74.4938C546.493 77.6658 545.842 80.4311 544.541 82.7898C543.28 85.1078 541.491 86.8971 539.173 88.1578C536.855 89.4185 534.13 90.0488 530.999 90.0488C527.908 90.0488 525.183 89.4388 522.825 88.2188C520.507 86.9581 518.697 85.1688 517.396 82.8508C516.135 80.4921 515.505 77.7065 515.505 74.4938C515.505 71.2811 516.155 68.5361 517.457 66.2588C518.758 63.9408 520.568 62.1515 522.886 60.8908C525.244 59.5895 527.949 58.9388 530.999 58.9388C534.089 58.9388 536.794 59.5895 539.112 60.8908C541.43 62.1515 543.239 63.9611 544.541 66.3198C545.842 68.6378 546.493 71.3625 546.493 74.4938ZM530.999 66.0758C529.087 66.0758 527.562 66.8078 526.424 68.2718C525.326 69.7358 524.777 71.8098 524.777 74.4938C524.777 77.2185 525.326 79.3128 526.424 80.7768C527.522 82.2001 529.047 82.9118 530.999 82.9118C532.951 82.9118 534.476 82.1798 535.574 80.7158C536.672 79.2518 537.221 77.1778 537.221 74.4938C537.221 71.8505 536.672 69.7968 535.574 68.3328C534.476 66.8281 532.951 66.0758 530.999 66.0758ZM326.407 131.895V144.583C326.407 145.721 326.183 146.596 325.736 147.206C325.329 147.775 324.638 148.324 323.662 148.853C322.564 149.463 320.978 149.991 318.904 150.439C316.83 150.927 314.756 151.171 312.682 151.171C308.778 151.171 305.26 150.5 302.129 149.158C299.038 147.775 296.578 145.66 294.748 142.814C292.958 139.926 292.064 136.226 292.064 131.712C292.064 127.401 292.979 123.802 294.809 120.915C296.639 117.987 299.099 115.791 302.19 114.327C305.321 112.822 308.778 112.07 312.56 112.07C315.081 112.07 317.257 112.334 319.087 112.863C320.957 113.391 322.381 114.123 323.357 115.059C324.373 115.994 324.882 117.072 324.882 118.292C324.882 119.186 324.638 120 324.15 120.732C323.702 121.423 323.153 121.952 322.503 122.318C321.486 121.667 320.205 121.057 318.66 120.488C317.114 119.918 315.305 119.634 313.231 119.634C310.994 119.634 308.981 120.122 307.192 121.098C305.443 122.033 304.081 123.416 303.105 125.246C302.129 127.035 301.641 129.17 301.641 131.651C301.641 134.335 302.108 136.571 303.044 138.361C304.02 140.15 305.341 141.492 307.009 142.387C308.717 143.241 310.648 143.668 312.804 143.668C313.82 143.668 314.735 143.566 315.549 143.363C316.403 143.159 317.053 142.956 317.501 142.753V135.616H310.364C310.12 135.209 309.896 134.701 309.693 134.091C309.489 133.44 309.388 132.749 309.388 132.017C309.388 130.756 309.672 129.841 310.242 129.272C310.852 128.662 311.645 128.357 312.621 128.357H322.869C323.967 128.357 324.821 128.662 325.431 129.272C326.081 129.882 326.407 130.756 326.407 131.895ZM345.686 144.339C346.622 144.339 347.537 144.257 348.431 144.095C349.367 143.891 350.038 143.668 350.444 143.424V137.568L345.32 138.056C343.938 138.137 342.84 138.422 342.026 138.91C341.213 139.398 340.806 140.13 340.806 141.106C340.806 142.082 341.193 142.875 341.965 143.485C342.738 144.054 343.978 144.339 345.686 144.339ZM345.32 119.939C349.55 119.939 352.925 120.833 355.446 122.623C357.968 124.371 359.228 127.096 359.228 130.797V144.644C359.228 145.66 358.964 146.494 358.435 147.145C357.907 147.755 357.236 148.283 356.422 148.731C355.202 149.463 353.677 150.032 351.847 150.439C350.058 150.886 348.004 151.11 345.686 151.11C341.538 151.11 338.224 150.296 335.743 148.67C333.303 147.043 332.083 144.623 332.083 141.411C332.083 138.645 332.937 136.531 334.645 135.067C336.353 133.562 338.895 132.647 342.27 132.322L350.383 131.468V130.736C350.383 129.353 349.834 128.357 348.736 127.747C347.679 127.137 346.154 126.832 344.161 126.832C342.616 126.832 341.091 127.015 339.586 127.381C338.122 127.747 336.801 128.174 335.621 128.662C335.133 128.336 334.706 127.848 334.34 127.198C334.015 126.506 333.852 125.795 333.852 125.063C333.852 123.355 334.788 122.114 336.658 121.342C337.838 120.854 339.2 120.508 340.745 120.305C342.331 120.061 343.856 119.939 345.32 119.939ZM392.791 129.943V136.897H383.702V131.102C383.702 129.719 383.295 128.702 382.482 128.052C381.668 127.401 380.652 127.076 379.432 127.076C378.537 127.076 377.724 127.218 376.992 127.503C376.3 127.747 375.711 128.011 375.223 128.296V136.897H366.195V127.381C366.195 126.364 366.398 125.53 366.805 124.88C367.252 124.188 367.882 123.578 368.696 123.05C370.038 122.114 371.685 121.362 373.637 120.793C375.589 120.223 377.622 119.939 379.737 119.939C381.689 119.939 383.519 120.244 385.227 120.854C386.935 121.464 388.419 122.399 389.68 123.66C390.005 123.904 390.31 124.168 390.595 124.453C390.92 124.697 391.164 124.981 391.327 125.307C391.733 125.957 392.079 126.689 392.364 127.503C392.648 128.316 392.791 129.129 392.791 129.943ZM410.298 130.858V136.897H401.27V131.102C401.27 129.719 400.883 128.702 400.111 128.052C399.338 127.401 398.321 127.076 397.061 127.076C396.125 127.076 395.231 127.279 394.377 127.686C393.563 128.052 392.852 128.499 392.242 129.028L387.484 123.782C388.826 122.724 390.351 121.83 392.059 121.098C393.767 120.325 395.861 119.939 398.342 119.939C400.456 119.939 402.429 120.305 404.259 121.037C406.089 121.769 407.553 122.928 408.651 124.514C409.749 126.1 410.298 128.214 410.298 130.858ZM366.195 134.091H375.223V150.073C374.816 150.195 374.247 150.296 373.515 150.378C372.783 150.5 371.99 150.561 371.136 150.561C369.428 150.561 368.167 150.256 367.354 149.646C366.581 149.036 366.195 147.938 366.195 146.352V134.091ZM383.702 134.091H392.791V150.073C392.384 150.195 391.815 150.296 391.083 150.378C390.351 150.5 389.558 150.561 388.704 150.561C386.955 150.561 385.674 150.256 384.861 149.646C384.088 149.036 383.702 147.938 383.702 146.352V134.091ZM401.27 134.091H410.298V150.073C409.932 150.195 409.383 150.296 408.651 150.378C407.919 150.5 407.126 150.561 406.272 150.561C404.523 150.561 403.242 150.256 402.429 149.646C401.656 149.036 401.27 147.938 401.27 146.352V134.091ZM421.634 139.764L421.268 133.664L436.396 131.285C436.315 130.146 435.827 129.089 434.932 128.113C434.038 127.137 432.716 126.649 430.967 126.649C429.137 126.649 427.612 127.279 426.392 128.54C425.172 129.76 424.522 131.508 424.44 133.786L424.745 137.995C425.111 140.231 426.067 141.838 427.612 142.814C429.158 143.749 430.988 144.217 433.102 144.217C434.81 144.217 436.417 143.973 437.921 143.485C439.426 142.997 440.646 142.488 441.581 141.96C442.191 142.326 442.679 142.834 443.045 143.485C443.452 144.135 443.655 144.827 443.655 145.559C443.655 146.779 443.167 147.795 442.191 148.609C441.256 149.422 439.934 150.032 438.226 150.439C436.559 150.845 434.648 151.049 432.492 151.049C429.361 151.049 426.535 150.459 424.013 149.28C421.533 148.1 419.581 146.331 418.157 143.973C416.734 141.614 416.022 138.666 416.022 135.128C416.022 132.525 416.429 130.268 417.242 128.357C418.096 126.445 419.215 124.88 420.597 123.66C422.021 122.399 423.607 121.464 425.355 120.854C427.145 120.244 428.995 119.939 430.906 119.939C433.712 119.939 436.152 120.508 438.226 121.647C440.341 122.745 441.988 124.249 443.167 126.161C444.347 128.072 444.936 130.288 444.936 132.81C444.936 134.07 444.591 135.026 443.899 135.677C443.208 136.327 442.252 136.734 441.032 136.897L421.634 139.764ZM474.275 141.594C474.275 144.562 473.157 146.901 470.92 148.609C468.684 150.276 465.43 151.11 461.16 151.11C457.826 151.11 455.081 150.622 452.925 149.646C450.77 148.67 449.692 147.226 449.692 145.315C449.692 144.461 449.875 143.729 450.241 143.119C450.607 142.468 451.075 141.96 451.644 141.594C452.783 142.244 454.105 142.854 455.609 143.424C457.155 143.952 458.903 144.217 460.855 144.217C463.824 144.217 465.308 143.363 465.308 141.655C465.308 140.923 465.044 140.353 464.515 139.947C463.987 139.499 463.112 139.174 461.892 138.971L459.33 138.361C456.077 137.669 453.637 136.612 452.01 135.189C450.424 133.725 449.631 131.732 449.631 129.211C449.631 126.364 450.77 124.107 453.047 122.44C455.365 120.732 458.476 119.878 462.38 119.878C464.332 119.878 466.101 120.081 467.687 120.488C469.314 120.854 470.595 121.443 471.53 122.257C472.466 123.029 472.933 124.005 472.933 125.185C472.933 125.998 472.771 126.71 472.445 127.32C472.12 127.93 471.693 128.438 471.164 128.845C470.717 128.56 470.026 128.255 469.09 127.93C468.196 127.604 467.199 127.34 466.101 127.137C465.044 126.933 464.048 126.832 463.112 126.832C461.648 126.832 460.51 127.035 459.696 127.442C458.883 127.808 458.476 128.397 458.476 129.211C458.476 129.739 458.7 130.207 459.147 130.614C459.635 130.98 460.469 131.285 461.648 131.529L464.088 132.139C467.708 132.952 470.31 134.131 471.896 135.677C473.482 137.181 474.275 139.154 474.275 141.594Z" fill="#FAF7F0"/>
<path d="M114.955 33.205C116.744 37.3359 114.186 47.5011 112.671 54.3057C105.823 54.0753 91.9344 55.9645 82.0818 61.4529C79.8552 62.6932 65.5009 56.983 71.6074 48.0282C75.8895 41.7488 80.6894 45.5488 84.8758 48.4748C82.456 46.1081 76.5458 40.8512 84.4743 34.9612C95.9002 26.4729 98.8439 47.2346 97.8833 37.5579C96.6034 24.6641 113.166 29.0739 114.955 33.205Z" fill="#FAF7F0" stroke="#FAF7F0"/>
<path d="M33.9236 73.9058C39.6982 68.1093 49.2818 69.7305 50.6822 72.5648C50.6822 72.5648 37.7715 83.0808 30.1393 90.2707C22.5793 97.3926 12.32 109.571 12.32 109.571C10.1731 106.27 8.7648 100.889 10.6245 96.8715C12.479 92.8654 16.2604 88.9275 20.9681 89.0923C25.7717 89.2606 31.2402 91.3811 30.2442 87.2748C29.4583 84.0345 29.1154 78.7323 33.9236 73.9058Z" fill="#FAF7F0" stroke="#FAF7F0"/>
<path fill-rule="evenodd" clip-rule="evenodd" d="M11.7773 116.907C30.1914 93.069 72.5865 48.9165 115.624 53.1007C146.457 56.0986 152.496 73.0143 153.951 80.2931C155.664 88.859 153.566 96.9942 152.024 98.7072C150.483 100.42 143.674 96.4236 140.462 94.2111C139.82 94.925 139.007 96.6518 140.891 97.8507C142.775 99.0498 147.456 101.564 149.883 102.349C143.245 117.551 124.404 118.621 119.051 123.545C113.704 128.465 130.791 169.065 130.827 169.152C123.975 177.716 102.563 180.502 89.7158 179.002C71.3558 176.858 41.7542 161.875 30.834 149.883C17.3015 135.022 13.2048 121.261 11.7773 116.907ZM115.839 87.3605C110.754 87.3605 106.632 89.2777 106.632 91.6427C106.632 94.0076 110.754 95.9249 115.839 95.925C120.924 95.925 125.045 94.0076 125.046 91.6427C125.046 89.2776 120.924 87.3605 115.839 87.3605ZM129.11 65.9484C124.802 65.452 122.69 69.5894 123.118 71.088L125.26 71.9445C125.266 71.9471 125.274 71.948 125.28 71.9503C125.227 72.2103 125.209 72.4807 125.233 72.755L126.174 83.2589C126.268 84.3119 126.999 85.2002 128.014 85.4962C129.706 85.9896 131.382 84.6697 131.298 82.9083L130.797 72.3742C130.747 71.3264 130.138 70.4752 129.306 70.0373C130.721 70.4337 133.309 70.751 134.038 74.9416C134.43 77.1932 134.66 76.6544 135.752 76.6544C136.393 76.6487 134.679 66.5906 129.11 65.9484ZM128.425 69.7472C128.512 69.7378 128.594 69.7535 128.671 69.796C128.59 69.7761 128.508 69.7598 128.425 69.7472Z" fill="#FAF7F0"/>
<path d="M169.153 91C169.153 47.8373 134.163 12.8471 91 12.8471C47.8373 12.8471 12.8471 47.8373 12.8471 91C12.8471 134.163 47.8373 169.153 91 169.153V182C40.7421 182 0 141.258 0 91C0 40.7421 40.7421 0 91 0C141.258 0 182 40.7421 182 91C182 141.258 141.258 182 91 182V169.153C134.163 169.153 169.153 134.163 169.153 91Z" fill="#FAF7F0"/>
</svg>
